<svg width="800" height="800" viewBox="0 0 800 800" fill="none" xmlns="http://www.w3.org/2000/svg">
<path d="M350.536 363C354.536 355.5 378.036 345.5 386.036 284.5C386.036 284.5 406.536 306.5 406.036 335C405.536 363.5 390.329 366 392.036 382.5C393.743 399 411.536 394.5 411.536 394.5C411.536 394.5 433.536 389.5 447.036 375.5C447.036 375.5 447.036 428.5 418.536 460.5C418.536 460.5 523.536 437 530.036 343.5C530.036 343.5 546.036 287 490.036 211C490.036 211 490.036 268.5 462.036 286.5C462.036 259.359 473.036 265 462.036 217C462.036 217 458.036 201 411.036 148.5C411.036 148.5 398.536 144 392.036 102C392.036 102 389.536 76 397.036 52C397.036 52 330.036 106 327.036 155C327.036 155 327.036 192.5 339.536 217C339.536 217 342.536 239 337.036 249.5C337.036 249.5 330.536 270 319.536 274C319.536 274 309.536 271.5 307.036 258C307.036 258 310.535 217 302.035 197.5C287.391 221.127 302.035 211 264.535 258C264.535 258 244.035 286.5 245.035 331C245.035 331 246.035 372 269.535 400.5C318.036 459 351.054 458.352 360.036 460.5C315.536 400.5 346.536 370.5 350.536 363Z" fill="#D5B86C"/>
<path d="M243 52H39V76C39 76 74 76 75 125.001C75 125.001 75.1129 234.564 75.1778 355.5C118 397 146.5 419 206 442C206.115 318.009 206.5 125.001 206.5 125.001C206.5 76 243 76 243 76V52Z" fill="#D5B86C"/>
<path d="M35 721.001C35 721.001 74.5 721.001 75 665.501C75.164 647.294 75.2204 582.865 75.2222 504.5C120.832 575.954 182.686 609.04 205.025 620.989L205.98 621.5C205.99 647.985 206 665.501 206 665.501C208 721.001 248.5 721.001 248.5 721.001V748.501H35V721.001Z" fill="#D5B86C"/>
<path d="M382 500C136 499 46 363 46 363C46 363 89.5 631.5 382 631.5C674.5 631.5 729 363 729 363C729 363 628 501 382 500Z" fill="#D5B86C"/>
<path d="M533.5 52H737.5V76C737.5 76 702.5 76 701.5 125.001C701.5 125.001 701.387 234.564 701.322 355.5C658.5 397 630 419 570.5 442C570.385 318.009 570 125.001 570 125.001C570 76 533.5 76 533.5 76V52Z" fill="#D5B86C"/>
<path d="M741.5 721.001C741.5 721.001 702 721.001 701.5 665.501C701.336 647.294 701.28 582.865 701.278 504.5C655.668 575.954 593.814 609.04 571.475 620.989L570.52 621.5C570.51 647.985 570.5 665.501 570.5 665.501C568.5 721.001 528 721.001 528 721.001V748.501H741.5V721.001Z" fill="#D5B86C"/>
</svg>
