<svg width="2073" height="800" viewBox="0 0 2073 800" fill="none" xmlns="http://www.w3.org/2000/svg">
<g clip-path="url(#clip0_10_213)">
<path d="M911.333 371.652C947.278 371.652 975.463 382.476 995.887 404.125C1016.31 425.774 1026.52 460.29 1026.52 507.673H820.039L819.427 496.032H955.448C956.265 476.017 955.039 457.635 951.772 440.888C948.504 423.732 943.194 410.048 935.841 399.836C928.897 389.625 919.707 384.519 908.269 384.519C892.747 384.519 879.268 393.709 867.831 412.091C856.393 430.063 849.245 459.678 846.386 500.933L848.837 504.61C848.02 509.92 847.407 515.638 846.999 521.765C846.999 527.893 846.999 534.02 846.999 540.147C846.999 568.331 851.083 591.614 859.253 609.995C867.422 628.377 878.042 641.856 891.114 650.434C904.185 659.012 917.664 663.301 931.552 663.301C940.947 663.301 950.546 661.871 960.35 659.012C970.153 656.153 979.752 650.843 989.147 643.082C998.542 635.321 1007.12 624.292 1014.88 609.995L1026.52 614.897C1022.03 629.194 1014.47 643.49 1003.85 657.787C993.64 671.675 980.365 683.112 964.026 692.098C947.687 701.085 928.489 705.578 906.431 705.578C878.655 705.578 854.147 699.451 832.906 687.197C811.666 674.943 795.123 656.765 783.277 632.666C771.431 608.157 765.508 578.339 765.508 543.21C765.508 506.039 771.635 474.791 783.89 449.466C796.552 424.141 813.912 404.942 835.97 391.871C858.027 378.392 883.148 371.652 911.333 371.652ZM1183.3 371.652C1200.46 371.652 1215.16 374.103 1227.42 379.004C1239.67 383.906 1248.66 388.195 1254.38 391.871C1268.27 402.083 1276.64 395.548 1279.5 372.265H1292.98C1292.16 384.11 1291.55 398.203 1291.14 414.541C1290.73 430.472 1290.53 451.917 1290.53 478.876H1277.05C1275.01 463.762 1271.13 449.057 1265.41 434.761C1259.69 420.464 1251.31 408.619 1240.29 399.224C1229.26 389.42 1214.76 384.519 1196.78 384.519C1184.12 384.519 1173.5 388.195 1164.92 395.548C1156.75 402.9 1152.67 413.316 1152.67 426.796C1152.67 439.05 1156.34 449.874 1163.7 459.269C1171.05 468.256 1180.44 476.833 1191.88 485.003C1203.73 492.764 1215.98 501.342 1228.64 510.737C1243.35 520.54 1256.42 530.548 1267.86 540.759C1279.29 550.563 1288.49 561.591 1295.43 573.846C1302.37 585.691 1305.85 599.784 1305.85 616.123C1305.85 634.912 1300.54 651.047 1289.91 664.526C1279.7 677.598 1266.02 687.809 1248.86 695.162C1232.12 702.106 1213.53 705.578 1193.11 705.578C1182.08 705.578 1172.07 704.557 1163.08 702.514C1154.1 700.472 1146.13 697.817 1139.19 694.549C1133.88 691.69 1128.98 689.035 1124.48 686.584C1120.4 684.133 1116.11 682.091 1111.62 680.457C1107.53 678.415 1103.86 679.231 1100.59 682.908C1097.73 686.584 1095.48 692.711 1093.85 701.289H1080.37C1081.19 688.218 1081.8 672.287 1082.21 653.498C1082.62 634.708 1082.82 609.791 1082.82 578.747H1096.3C1099.16 601.213 1103.45 621.024 1109.17 638.18C1115.29 654.927 1124.08 668.203 1135.51 678.006C1146.95 687.401 1161.65 692.098 1179.63 692.098C1187.39 692.098 1194.74 690.464 1201.68 687.197C1209.04 683.929 1214.96 678.823 1219.45 671.879C1224.36 664.935 1226.81 655.54 1226.81 643.694C1226.81 625.722 1220.68 610.812 1208.42 598.967C1196.17 587.121 1180.85 574.458 1162.47 560.979C1148.58 550.767 1135.51 540.759 1123.26 530.956C1111.41 521.153 1101.61 510.124 1093.85 497.87C1086.5 485.616 1082.82 471.115 1082.82 454.368C1082.82 435.986 1087.52 420.873 1096.91 409.027C1106.31 396.773 1118.56 387.582 1133.67 381.455C1149.2 374.92 1165.74 371.652 1183.3 371.652ZM1462.1 279.746V380.843H1540.53V393.097H1462.1V636.955C1462.1 651.66 1464.76 662.076 1470.07 668.203C1475.38 674.33 1482.94 677.393 1492.74 677.393C1502.14 677.393 1510.71 673.921 1518.47 666.977C1526.24 659.625 1533.18 647.575 1539.31 630.828L1550.33 635.729C1544.21 655.744 1534.61 672.492 1521.54 685.971C1508.88 699.042 1490.9 705.578 1467.62 705.578C1453.73 705.578 1441.89 703.74 1432.08 700.064C1422.69 696.796 1414.52 691.894 1407.57 685.359C1398.59 675.964 1392.46 664.731 1389.19 651.66C1386.33 638.588 1384.9 621.228 1384.9 599.579V393.097H1330.99V380.843H1384.9V295.676C1399.61 295.268 1413.29 293.838 1425.96 291.387C1438.62 288.936 1450.67 285.056 1462.1 279.746ZM1637.68 223.989C1652.39 223.989 1664.44 228.074 1673.83 236.243C1683.23 244.413 1687.93 255.237 1687.93 268.717C1687.93 282.196 1683.23 293.021 1673.83 301.19C1664.44 309.36 1652.39 313.445 1637.68 313.445C1622.98 313.445 1610.93 309.36 1601.53 301.19C1592.14 293.021 1587.44 282.196 1587.44 268.717C1587.44 255.237 1592.14 244.413 1601.53 236.243C1610.93 228.074 1622.98 223.989 1637.68 223.989ZM1680.57 373.49V640.018C1680.57 657.174 1683.64 668.815 1689.76 674.943C1696.3 681.07 1707.12 684.133 1722.24 684.133V697C1714.89 696.592 1703.65 696.183 1688.54 695.775C1673.43 694.958 1658.11 694.549 1642.59 694.549C1627.47 694.549 1612.15 694.958 1596.63 695.775C1581.11 696.183 1569.47 696.592 1561.71 697V684.133C1576.82 684.133 1587.44 681.07 1593.57 674.943C1600.1 668.815 1603.37 657.174 1603.37 640.018V447.628C1603.37 428.838 1600.31 415.154 1594.18 406.576C1588.46 397.59 1577.64 393.097 1561.71 393.097V380.23C1574.78 381.455 1587.44 382.068 1599.7 382.068C1614.81 382.068 1629.11 381.455 1642.59 380.23C1656.47 378.596 1669.14 376.349 1680.57 373.49ZM1835.35 701.289C1817.79 701.289 1802.88 698.021 1790.63 691.486C1778.37 684.542 1769.18 675.351 1763.05 663.914C1756.93 652.068 1753.86 638.997 1753.86 624.7C1753.86 607.136 1757.95 592.84 1766.12 581.811C1774.29 570.374 1784.7 561.387 1797.37 554.852C1810.44 547.908 1824.12 542.189 1838.42 537.696C1852.71 532.794 1866.19 528.301 1878.86 524.216C1891.52 519.723 1901.94 514.617 1910.1 508.899C1918.27 503.18 1922.36 495.623 1922.36 486.228V441.501C1922.36 428.43 1920.32 417.809 1916.23 409.64C1912.56 401.062 1906.84 394.731 1899.08 390.646C1891.72 386.153 1882.33 383.906 1870.89 383.906C1862.31 383.906 1853.33 385.131 1843.93 387.582C1834.54 390.033 1826.78 394.731 1820.65 401.675C1831.27 404.534 1839.44 409.844 1845.16 417.605C1851.28 425.366 1854.35 434.761 1854.35 445.79C1854.35 458.452 1850.06 468.46 1841.48 475.812C1833.31 482.756 1822.9 486.228 1810.23 486.228C1796.75 486.228 1786.54 481.939 1779.6 473.361C1772.65 464.784 1769.18 454.776 1769.18 443.339C1769.18 431.902 1772.04 422.507 1777.76 415.154C1783.48 407.393 1791.44 400.449 1801.66 394.322C1811.87 387.378 1824.94 381.864 1840.87 377.779C1856.8 373.694 1874.16 371.652 1892.95 371.652C1910.92 371.652 1926.85 373.694 1940.74 377.779C1954.63 381.455 1966.47 388.195 1976.28 397.998C1986.08 407.393 1992.41 419.035 1995.27 432.923C1998.13 446.811 1999.56 463.762 1999.56 483.778V651.66C1999.56 661.871 2000.79 669.224 2003.24 673.717C2005.69 677.802 2009.57 679.844 2014.88 679.844C2018.96 679.844 2022.84 678.823 2026.52 676.781C2030.2 674.738 2034.28 671.879 2038.77 668.203L2045.51 678.619C2036.53 685.563 2027.13 691.077 2017.33 695.162C2007.53 699.247 1995.68 701.289 1981.79 701.289C1967.5 701.289 1956.06 699.247 1947.48 695.162C1939.31 691.077 1933.18 685.154 1929.1 677.393C1925.42 669.632 1923.38 660.442 1922.97 649.821C1913.17 666.16 1901.12 678.823 1886.82 687.809C1872.53 696.796 1855.37 701.289 1835.35 701.289ZM1872.12 666.977C1881.92 666.977 1890.91 664.322 1899.08 659.012C1907.65 653.702 1915.41 645.737 1922.36 635.116V511.349C1918.27 517.476 1912.35 522.991 1904.59 527.893C1897.24 532.794 1889.27 537.696 1880.69 542.598C1872.12 547.499 1863.95 553.218 1856.19 559.753C1848.83 565.88 1842.5 573.641 1837.19 583.036C1832.29 592.023 1829.84 603.664 1829.84 617.961C1829.84 633.891 1833.72 646.145 1841.48 654.723C1849.24 662.893 1859.45 666.977 1872.12 666.977Z" fill="#8A5A2B"/>
<path d="M350.536 363C354.536 355.5 378.036 345.5 386.036 284.5C386.036 284.5 406.536 306.5 406.036 335C405.536 363.5 390.329 366 392.036 382.5C393.743 399 411.536 394.5 411.536 394.5C411.536 394.5 433.536 389.5 447.036 375.5C447.036 375.5 447.036 428.5 418.536 460.5C418.536 460.5 523.536 437 530.036 343.5C530.036 343.5 546.036 287 490.036 211C490.036 211 490.036 268.5 462.036 286.5C462.036 259.359 473.036 265 462.036 217C462.036 217 458.036 201 411.036 148.5C411.036 148.5 398.536 144 392.036 102C392.036 102 389.536 76 397.036 52C397.036 52 330.036 106 327.036 155C327.036 155 327.036 192.5 339.536 217C339.536 217 342.536 239 337.036 249.5C337.036 249.5 330.536 270 319.536 274C319.536 274 309.536 271.5 307.036 258C307.036 258 310.535 217 302.035 197.5C287.391 221.127 302.035 211 264.535 258C264.535 258 244.035 286.5 245.035 331C245.035 331 246.035 372 269.535 400.5C318.036 459 351.054 458.352 360.036 460.5C315.536 400.5 346.536 370.5 350.536 363Z" fill="#8A5A2B"/>
<path d="M243 52H39V76C39 76 74 76 75 125.001C75 125.001 75.1129 234.564 75.1778 355.5C118 397 146.5 419 206 442C206.115 318.009 206.5 125.001 206.5 125.001C206.5 76 243 76 243 76V52Z" fill="#8A5A2B"/>
<path d="M35 721.001C35 721.001 74.5 721.001 75 665.501C75.164 647.294 75.2204 582.865 75.2222 504.5C120.832 575.954 182.686 609.04 205.025 620.989L205.98 621.5C205.99 647.985 206 665.501 206 665.501C208 721.001 248.5 721.001 248.5 721.001V748.501H35V721.001Z" fill="#8A5A2B"/>
<path d="M382 500C136 499 46 363 46 363C46 363 89.5 631.5 382 631.5C674.5 631.5 729 363 729 363C729 363 628 501 382 500Z" fill="#8A5A2B"/>
<path d="M533.5 52H737.5V76C737.5 76 702.5 76 701.5 125.001C701.5 125.001 701.387 234.564 701.322 355.5C658.5 397 630 419 570.5 442C570.385 318.009 570 125.001 570 125.001C570 76 533.5 76 533.5 76V52Z" fill="#8A5A2B"/>
<path d="M741.5 721.001C741.5 721.001 702 721.001 701.5 665.501C701.336 647.294 701.28 582.865 701.278 504.5C655.668 575.954 593.814 609.04 571.475 620.989L570.52 621.5C570.51 647.985 570.5 665.501 570.5 665.501C568.5 721.001 528 721.001 528 721.001V748.501H741.5V721.001Z" fill="#8A5A2B"/>
</g>
<defs>
<clipPath id="clip0_10_213">
<rect width="2073" height="800" fill="white"/>
</clipPath>
</defs>
</svg>
