<svg width="818" height="316" viewBox="0 0 818 316" fill="none" xmlns="http://www.w3.org/2000/svg">
<g clip-path="url(#clip0_10_213)">
<path d="M359.603 146.037C373.787 146.037 384.908 150.308 392.967 158.85C401.026 167.393 405.055 181.013 405.055 199.709H323.579L323.338 195.116H377.01C377.333 187.218 376.849 179.965 375.56 173.357C374.27 166.587 372.175 161.187 369.274 157.158C366.534 153.129 362.907 151.114 358.394 151.114C352.269 151.114 346.95 154.74 342.437 161.993C337.924 169.085 335.104 180.771 333.975 197.05L334.943 198.5C334.62 200.596 334.378 202.852 334.217 205.27C334.217 207.688 334.217 210.105 334.217 212.523C334.217 223.644 335.829 232.832 339.053 240.085C342.276 247.338 346.467 252.657 351.625 256.041C356.782 259.426 362.101 261.119 367.581 261.119C371.288 261.119 375.076 260.554 378.944 259.426C382.813 258.298 386.6 256.203 390.308 253.14C394.015 250.078 397.399 245.726 400.462 240.085L405.055 242.019C403.282 247.66 400.301 253.301 396.11 258.943C392.081 264.423 386.842 268.936 380.395 272.482C373.948 276.028 366.372 277.801 357.669 277.801C346.709 277.801 337.038 275.383 328.657 270.548C320.275 265.712 313.747 258.54 309.073 249.03C304.399 239.359 302.062 227.593 302.062 213.732C302.062 199.065 304.48 186.734 309.315 176.741C314.312 166.748 321.162 159.173 329.865 154.015C338.569 148.696 348.482 146.037 359.603 146.037ZM466.92 146.037C473.689 146.037 479.492 147.004 484.327 148.938C489.163 150.872 492.709 152.564 494.965 154.015C500.445 158.044 503.749 155.466 504.878 146.278H510.197C509.874 150.953 509.632 156.513 509.471 162.96C509.31 169.246 509.229 177.708 509.229 188.346H503.911C503.105 182.383 501.573 176.58 499.317 170.939C497.06 165.298 493.756 160.623 489.404 156.916C485.053 153.048 479.331 151.114 472.239 151.114C467.242 151.114 463.052 152.564 459.667 155.466C456.443 158.367 454.831 162.477 454.831 167.796C454.831 172.631 456.282 176.902 459.183 180.61C462.085 184.156 465.792 187.54 470.305 190.764C474.979 193.826 479.814 197.211 484.811 200.918C490.613 204.786 495.771 208.735 500.284 212.765C504.797 216.633 508.424 220.985 511.164 225.82C513.904 230.495 515.274 236.055 515.274 242.502C515.274 249.917 513.178 256.283 508.988 261.602C504.958 266.76 499.559 270.789 492.789 273.691C486.181 276.431 478.847 277.801 470.788 277.801C466.436 277.801 462.487 277.398 458.942 276.592C455.396 275.786 452.253 274.738 449.513 273.449C447.417 272.321 445.483 271.273 443.71 270.306C442.098 269.339 440.406 268.533 438.633 267.888C437.021 267.082 435.571 267.405 434.281 268.855C433.153 270.306 432.266 272.723 431.622 276.108H426.303C426.625 270.95 426.867 264.664 427.028 257.25C427.189 249.836 427.27 240.004 427.27 227.754H432.589C433.717 236.619 435.409 244.437 437.666 251.206C440.084 257.814 443.549 263.053 448.062 266.921C452.575 270.628 458.377 272.482 465.469 272.482C468.532 272.482 471.433 271.837 474.173 270.548C477.074 269.258 479.411 267.243 481.184 264.503C483.118 261.763 484.086 258.056 484.086 253.382C484.086 246.29 481.668 240.407 476.832 235.733C471.997 231.059 465.953 226.062 458.7 220.743C453.22 216.714 448.062 212.765 443.227 208.897C438.552 205.028 434.684 200.676 431.622 195.841C428.72 191.006 427.27 185.284 427.27 178.675C427.27 171.422 429.123 165.459 432.831 160.785C436.538 155.949 441.373 152.323 447.337 149.905C453.461 147.326 459.989 146.037 466.92 146.037ZM576.932 109.771V149.663H607.879V154.499H576.932V250.722C576.932 256.525 577.98 260.635 580.075 263.053C582.171 265.47 585.152 266.679 589.021 266.679C592.728 266.679 596.113 265.309 599.175 262.569C602.237 259.668 604.977 254.913 607.395 248.305L611.747 250.239C609.329 258.137 605.542 264.745 600.384 270.064C595.387 275.222 588.295 277.801 579.108 277.801C573.628 277.801 568.954 277.075 565.086 275.625C561.378 274.335 558.155 272.401 555.415 269.822C551.869 266.115 549.451 261.683 548.162 256.525C547.034 251.367 546.469 244.517 546.469 235.975V154.499H525.194V149.663H546.469V116.057C552.272 115.896 557.671 115.332 562.668 114.365C567.664 113.398 572.419 111.867 576.932 109.771ZM646.214 87.7704C652.017 87.7704 656.771 89.3822 660.478 92.6057C664.186 95.8293 666.039 100.101 666.039 105.419C666.039 110.738 664.186 115.01 660.478 118.233C656.771 121.457 652.017 123.069 646.214 123.069C640.412 123.069 635.657 121.457 631.95 118.233C628.243 115.01 626.389 110.738 626.389 105.419C626.389 100.101 628.243 95.8293 631.95 92.6057C635.657 89.3822 640.412 87.7704 646.214 87.7704ZM663.138 146.762V251.931C663.138 258.701 664.347 263.294 666.764 265.712C669.343 268.13 673.615 269.339 679.578 269.339V274.416C676.677 274.255 672.245 274.093 666.281 273.932C660.317 273.61 654.273 273.449 648.148 273.449C642.185 273.449 636.14 273.61 630.016 273.932C623.891 274.093 619.297 274.255 616.235 274.416V269.339C622.198 269.339 626.389 268.13 628.807 265.712C631.386 263.294 632.675 258.701 632.675 251.931V176.016C632.675 168.602 631.466 163.202 629.049 159.817C626.792 156.272 622.521 154.499 616.235 154.499V149.421C621.393 149.905 626.389 150.147 631.224 150.147C637.188 150.147 642.829 149.905 648.148 149.421C653.628 148.777 658.625 147.89 663.138 146.762ZM724.213 276.108C717.282 276.108 711.399 274.819 706.564 272.24C701.728 269.5 698.102 265.873 695.684 261.36C693.266 256.686 692.058 251.528 692.058 245.887C692.058 238.956 693.669 233.315 696.893 228.963C700.117 224.45 704.227 220.904 709.223 218.325C714.381 215.585 719.78 213.329 725.422 211.556C731.063 209.622 736.382 207.849 741.378 206.237C746.375 204.464 750.485 202.449 753.709 200.193C756.932 197.936 758.544 194.955 758.544 191.247V173.598C758.544 168.441 757.738 164.25 756.126 161.026C754.676 157.642 752.419 155.143 749.357 153.531C746.456 151.758 742.748 150.872 738.235 150.872C734.851 150.872 731.305 151.356 727.598 152.323C723.89 153.29 720.828 155.143 718.41 157.883C722.601 159.012 725.825 161.107 728.081 164.169C730.499 167.232 731.708 170.939 731.708 175.291C731.708 180.287 730.015 184.236 726.631 187.137C723.407 189.877 719.297 191.247 714.3 191.247C708.981 191.247 704.952 189.555 702.212 186.17C699.472 182.785 698.102 178.837 698.102 174.324C698.102 169.811 699.23 166.103 701.487 163.202C703.743 160.14 706.886 157.4 710.916 154.982C714.945 152.242 720.103 150.066 726.389 148.454C732.675 146.843 739.525 146.037 746.939 146.037C754.031 146.037 760.317 146.843 765.797 148.454C771.277 149.905 775.951 152.564 779.82 156.433C783.688 160.14 786.186 164.733 787.314 170.214C788.443 175.694 789.007 182.383 789.007 190.28V256.525C789.007 260.554 789.49 263.456 790.457 265.229C791.425 266.84 792.956 267.646 795.051 267.646C796.663 267.646 798.194 267.243 799.645 266.437C801.095 265.632 802.707 264.503 804.48 263.053L807.14 267.163C803.594 269.903 799.886 272.079 796.018 273.691C792.15 275.302 787.476 276.108 781.996 276.108C776.354 276.108 771.841 275.302 768.457 273.691C765.233 272.079 762.815 269.742 761.203 266.679C759.753 263.617 758.947 259.99 758.786 255.8C754.917 262.247 750.163 267.243 744.521 270.789C738.88 274.335 732.111 276.108 724.213 276.108ZM738.719 262.569C742.587 262.569 746.133 261.522 749.357 259.426C752.742 257.331 755.804 254.188 758.544 249.997V201.16C756.932 203.578 754.595 205.754 751.533 207.688C748.632 209.622 745.489 211.556 742.104 213.49C738.719 215.424 735.495 217.681 732.433 220.26C729.532 222.677 727.033 225.74 724.938 229.447C723.004 232.993 722.037 237.586 722.037 243.228C722.037 249.514 723.568 254.349 726.631 257.734C729.693 260.957 733.722 262.569 738.719 262.569Z" fill="#8A5A2B"></path>
<path d="M138.318 143.236C139.896 140.277 149.169 136.331 152.326 112.261C152.326 112.261 160.415 120.942 160.218 132.188C160.02 143.434 154.02 144.42 154.693 150.931C155.367 157.442 162.388 155.666 162.388 155.666C162.388 155.666 171.069 153.693 176.396 148.169C176.396 148.169 176.396 169.082 165.15 181.709C165.15 181.709 206.582 172.436 209.147 135.542C209.147 135.542 215.46 113.247 193.363 83.2585C193.363 83.2585 193.363 105.947 182.315 113.05C182.315 102.34 186.655 104.566 182.315 85.6261C182.315 85.6261 180.736 79.3126 162.191 58.5966C162.191 58.5966 157.258 56.821 154.693 40.2482C154.693 40.2482 153.707 29.9888 156.666 20.5187C156.666 20.5187 130.229 41.8266 129.045 61.1615C129.045 61.1615 129.045 75.9586 133.977 85.6261C133.977 85.6261 135.161 94.3071 132.991 98.4503C132.991 98.4503 130.426 106.539 126.086 108.118C126.086 108.118 122.14 107.131 121.153 101.804C121.153 101.804 122.534 85.6261 119.18 77.9316C113.401 87.2544 119.18 83.2585 104.383 101.804C104.383 101.804 96.2939 113.05 96.6885 130.609C96.6885 130.609 97.083 146.788 106.356 158.033C125.494 181.117 138.522 180.861 142.067 181.709C124.507 158.033 136.74 146.196 138.318 143.236Z" fill="#8A5A2B"></path>
<path d="M95.8855 20.5186H15.3891V29.9888C15.3891 29.9888 29.1997 29.9888 29.5943 49.3242C29.5943 49.3242 29.6389 92.5566 29.6645 140.277C46.5617 156.652 57.8075 165.333 81.2856 174.409C81.3309 125.483 81.4829 49.3242 81.4829 49.3242C81.4829 29.9888 95.8855 29.9888 95.8855 29.9888V20.5186Z" fill="#8A5A2B"></path>
<path d="M13.8107 284.5C13.8107 284.5 29.397 284.5 29.5943 262.6C29.659 255.416 29.6813 229.993 29.682 199.071C47.9428 227.679 72.8019 240.7 81.2778 245.238C81.2816 255.689 81.2856 262.6 81.2856 262.6C82.0748 284.5 98.0557 284.5 98.0557 284.5V295.351H13.8107V284.5Z" fill="#8A5A2B"></path>
<path d="M150.733 197.295C53.6642 196.9 18.1511 143.236 18.1511 143.236C18.1511 143.236 35.3158 249.184 150.733 249.184C266.151 249.184 287.656 143.236 287.656 143.236C287.656 143.236 247.803 197.69 150.733 197.295Z" fill="#8A5A2B"></path>
<path d="M210.514 20.5187H291.01V29.9888C291.01 29.9888 277.199 29.9888 276.805 49.3242C276.805 49.3242 276.76 92.5567 276.735 140.277C259.837 156.652 248.592 165.333 225.113 174.409C225.068 125.483 224.916 49.3242 224.916 49.3242C224.916 29.9888 210.514 29.9888 210.514 29.9888V20.5187Z" fill="#8A5A2B"></path>
<path d="M292.588 284.5C292.588 284.5 277.002 284.5 276.805 262.6C276.74 255.416 276.718 229.993 276.717 199.071C258.456 227.679 233.597 240.7 225.121 245.238C225.118 255.689 225.113 262.6 225.113 262.6C224.324 284.5 208.343 284.5 208.343 284.5V295.351H292.588V284.5Z" fill="#8A5A2B"></path>
</g>
<defs>
<clipPath id="clip0_10_213">
<rect width="817.986" height="315.672" fill="white"></rect>
</clipPath>
</defs>
</svg>